<?xml version="1.0" encoding="UTF-8" standalone="no" ?>
<!DOCTYPE svg PUBLIC "-//W3C//DTD SVG 1.1//EN" "http://www.w3.org/Graphics/SVG/1.1/DTD/svg11.dtd">
<svg xmlns="http://www.w3.org/2000/svg" xmlns:xlink="http://www.w3.org/1999/xlink" version="1.1" width="1440" height="800" viewBox="0 0 1440 800" xml:space="preserve">
<desc>Created with Fabric.js 4.6.0</desc>
<defs>
</defs>
<g transform="matrix(1 0 0 1 720 400)" id="KxiCvhzw3Bx8VkSifKpbP"  >
<path style="stroke: rgb(147,209,172); stroke-width: 0; stroke-dasharray: none; stroke-linecap: butt; stroke-dashoffset: 0; stroke-linejoin: miter; stroke-miterlimit: 4; fill: rgb(249,245,242); fill-rule: nonzero; opacity: 1;" vector-effect="non-scaling-stroke"  transform=" translate(-720, -400)" d="M 0 0 L 1440 0 L 1440 800 L 0 800 z" stroke-linecap="round" />
</g>
<g transform="matrix(1 0 0 1 325 271.5)" id="LEC5sp2jQS3SMKu_4xZmO"  >
<path style="stroke: rgb(40,45,39); stroke-width: 2; stroke-dasharray: none; stroke-linecap: butt; stroke-dashoffset: 0; stroke-linejoin: miter; stroke-miterlimit: 4; fill: none; fill-rule: nonzero; opacity: 1;" vector-effect="non-scaling-stroke"  transform=" translate(-75, -137.5)" d="M 0 73.87902 C 0 33.076769999999996 33.07676 0 73.87902 0 L 76.121 0 L 76.121 0 C 116.92325 0 150.00002 33.07676 150.00002 73.87902 L 150.00002 201.12099999999998 L 150.00002 201.12099999999998 C 150.00002 241.92325 116.92326 275.00001999999995 76.12100000000001 275.00001999999995 L 73.87902000000001 275.00001999999995 L 73.87902000000001 275.00001999999995 C 33.07677000000001 275.00001999999995 1.4210854715202004e-14 241.92325999999994 1.4210854715202004e-14 201.12099999999995 z" stroke-linecap="round" />
</g>
<g transform="matrix(1 0 0 1 401 167)" id="1rcZ061NOPGNlWP3WU7cD"  >
<path style="stroke: rgb(238,47,23); stroke-width: 0; stroke-dasharray: none; stroke-linecap: butt; stroke-dashoffset: 0; stroke-linejoin: miter; stroke-miterlimit: 4; fill: rgb(245,226,216); fill-rule: nonzero; opacity: 1;" vector-effect="non-scaling-stroke"  transform=" translate(0, 0)" d="M 0 -34 C 18.768 -34 34 -18.768 34 0 C 34 18.768 18.768 34 0 34 C -18.768 34 -34 18.768 -34 0 C -34 -18.768 -18.768 -34 0 -34 z" stroke-linecap="round" />
</g>
<g transform="matrix(1 0 0 1 1296 799)" id="CQKodyuie7xpiOgAX_O5R"  >
<path style="stroke: rgb(238,47,23); stroke-width: 0; stroke-dasharray: none; stroke-linecap: butt; stroke-dashoffset: 0; stroke-linejoin: miter; stroke-miterlimit: 4; fill: rgb(245,226,216); fill-rule: nonzero; opacity: 1;" vector-effect="non-scaling-stroke"  transform=" translate(-400, -400)" d="M 400 0 C 620.8 0 800 179.2 800 400 C 800 620.8 620.8 800 400 800 C 179.2 800 0 620.8 0 400 C 0 179.2 179.2 0 400 0 z" stroke-linecap="round" />
</g>
</svg>