<?xml version="1.0" encoding="UTF-8" standalone="no" ?>
<!DOCTYPE svg PUBLIC "-//W3C//DTD SVG 1.1//EN" "http://www.w3.org/Graphics/SVG/1.1/DTD/svg11.dtd">
<svg xmlns="http://www.w3.org/2000/svg" xmlns:xlink="http://www.w3.org/1999/xlink" version="1.1" width="1440" height="800" viewBox="0 0 1440 800" xml:space="preserve">
<desc>Created with Fabric.js 4.6.0</desc>
<defs>
</defs>
<g transform="matrix(1 0 0 1 720 400)" id="DlITEjZJ3Yoscqe4viQIO"  >
<path style="stroke: rgb(118,75,88); stroke-width: 0; stroke-dasharray: none; stroke-linecap: butt; stroke-dashoffset: 0; stroke-linejoin: miter; stroke-miterlimit: 4; fill: rgb(249,245,242); fill-rule: nonzero; opacity: 1;" vector-effect="non-scaling-stroke"  transform=" translate(0, 0)" d="M -720 -400 L 720 -400 L 720 400 L -720 400 z" stroke-linecap="round" />
</g>
<g transform="matrix(1 0 0 1 1290.5 799.5)" id="YNovIoT8MF5ma9OhNEoya"  >
<path style="stroke: rgb(227,189,112); stroke-width: 0; stroke-dasharray: none; stroke-linecap: butt; stroke-dashoffset: 0; stroke-linejoin: miter; stroke-miterlimit: 4; fill: rgb(245,226,216); fill-rule: nonzero; opacity: 1;" vector-effect="non-scaling-stroke"  transform=" translate(-407.5, -407.5)" d="M 407.5 0 C 632.44 0 815 182.56 815 407.5 C 815 632.44 632.44 815 407.5 815 C 182.56 815 0 632.44 0 407.5 C 0 182.56 182.56 0 407.5 0 z" stroke-linecap="round" />
</g>
<g transform="matrix(1 0 0 1 442 271.5)" id="LEC5sp2jQS3SMKu_4xZmO"  >
<path style="stroke: rgb(40,45,39); stroke-width: 2; stroke-dasharray: none; stroke-linecap: butt; stroke-dashoffset: 0; stroke-linejoin: miter; stroke-miterlimit: 4; fill: none; fill-rule: nonzero; opacity: 1;" vector-effect="non-scaling-stroke"  transform=" translate(0, 0)" d="M -75 -63.62099 C -75 -104.42323999999999 -41.92324 -137.5 -1.1209900000000061 -137.5 L 1.1209799999999936 -137.5 L 1.1209799999999936 -137.5 C 41.92323 -137.5 74.99998999999998 -104.42323999999999 74.99998999999998 -63.620990000000006 L 74.99998999999998 63.62097999999999 L 74.99998999999998 63.62097999999999 C 74.99998999999998 104.42322999999999 41.92322999999998 137.49998999999997 1.1209799999999888 137.49998999999997 L -1.120990000000011 137.49998999999997 L -1.120990000000011 137.49998999999997 C -41.923240000000014 137.49998999999997 -75 104.42322999999996 -75 63.620979999999975 z" stroke-linecap="round" />
</g>
<g transform="matrix(1 0 0 1 518 168)" id="JDJv6Rvn0bokPlKUT_YCd"  >
<path style="stroke: rgb(40,45,39); stroke-width: 0; stroke-dasharray: none; stroke-linecap: butt; stroke-dashoffset: 0; stroke-linejoin: miter; stroke-miterlimit: 4; fill: rgb(245,226,216); fill-rule: nonzero; opacity: 1;" vector-effect="non-scaling-stroke"  transform=" translate(-35, -35)" d="M 35 0 C 54.32 0 70 15.68 70 35 C 70 54.32 54.32 70 35 70 C 15.68 70 0 54.32 0 35 C 0 15.68 15.68 0 35 0 z" stroke-linecap="round" />
</g>
</svg>