<?xml version="1.0" encoding="UTF-8" standalone="no" ?>
<!DOCTYPE svg PUBLIC "-//W3C//DTD SVG 1.1//EN" "http://www.w3.org/Graphics/SVG/1.1/DTD/svg11.dtd">
<svg xmlns="http://www.w3.org/2000/svg" xmlns:xlink="http://www.w3.org/1999/xlink" version="1.1" width="1440" height="600" viewBox="0 0 1440 600" xml:space="preserve">
<desc>Created with Fabric.js 4.6.0</desc>
<defs>
</defs>
<g transform="matrix(1 0 0 1 719 300)" id="DlITEjZJ3Yoscqe4viQIO"  >
<path style="stroke: rgb(118,75,88); stroke-width: 0; stroke-dasharray: none; stroke-linecap: butt; stroke-dashoffset: 0; stroke-linejoin: miter; stroke-miterlimit: 4; fill: rgb(245,226,216); fill-rule: nonzero; opacity: 1;" vector-effect="non-scaling-stroke"  transform=" translate(0, 0)" d="M -720 -300 L 720 -300 L 720 300 L -720 300 z" stroke-linecap="round" />
</g>
<g transform="matrix(0 1 -1 0 25 225)" id="LEC5sp2jQS3SMKu_4xZmO"  >
<path style="stroke: rgb(40,45,39); stroke-width: 2; stroke-dasharray: none; stroke-linecap: butt; stroke-dashoffset: 0; stroke-linejoin: miter; stroke-miterlimit: 4; fill: none; fill-rule: nonzero; opacity: 1;" vector-effect="non-scaling-stroke"  transform=" translate(0, 0)" d="M -75 -63.62099 C -75 -104.42323999999999 -41.92324 -137.5 -1.1209900000000061 -137.5 L 1.1209799999999936 -137.5 L 1.1209799999999936 -137.5 C 41.92323 -137.5 74.99998999999998 -104.42323999999999 74.99998999999998 -63.620990000000006 L 74.99998999999998 63.62097999999999 L 74.99998999999998 63.62097999999999 C 74.99998999999998 104.42322999999999 41.92322999999998 137.49998999999997 1.1209799999999888 137.49998999999997 L -1.120990000000011 137.49998999999997 L -1.120990000000011 137.49998999999997 C -41.923240000000014 137.49998999999997 -75 104.42322999999996 -75 63.620979999999975 z" stroke-linecap="round" />
</g>
<g transform="matrix(1 0 0 1 164 184)" id="JDJv6Rvn0bokPlKUT_YCd"  >
<path style="stroke: rgb(40,45,39); stroke-width: 0; stroke-dasharray: none; stroke-linecap: butt; stroke-dashoffset: 0; stroke-linejoin: miter; stroke-miterlimit: 4; fill: rgb(43,79,96); fill-rule: nonzero; opacity: 1;" vector-effect="non-scaling-stroke"  transform=" translate(-35, -35)" d="M 35 0 C 54.32 0 70 15.68 70 35 C 70 54.32 54.32 70 35 70 C 15.68 70 0 54.32 0 35 C 0 15.68 15.68 0 35 0 z" stroke-linecap="round" />
</g>
<g transform="matrix(1 0 0 1 720 300)" id="nheMx1ODW8jzWej6dKlks"  >
<path style="stroke: rgb(40,45,39); stroke-width: 0; stroke-dasharray: none; stroke-linecap: butt; stroke-dashoffset: 0; stroke-linejoin: miter; stroke-miterlimit: 4; fill: rgb(40,45,39); fill-rule: nonzero; opacity: 1;" vector-effect="non-scaling-stroke"  transform=" translate(-10, -10)" d="M 10 0 C 15.52 0 20 4.48 20 10 C 20 15.52 15.52 20 10 20 C 4.48 20 0 15.52 0 10 C 0 4.48 4.48 0 10 0 z" stroke-linecap="round" />
</g>
<g transform="matrix(1 0 0 1 720 299.5)" id="iiXDKBb8Qle-arTSrsp2Y"  >
<path style="stroke: rgb(40,45,39); stroke-width: 0; stroke-dasharray: none; stroke-linecap: butt; stroke-dashoffset: 0; stroke-linejoin: miter; stroke-miterlimit: 4; fill: rgb(40,45,39); fill-rule: nonzero; opacity: 1;" vector-effect="non-scaling-stroke"  transform=" translate(-1, -196.5)" d="M 0 0 L 2 0 L 2 393 L 0 393 z" stroke-linecap="round" />
</g>
</svg>