<?xml version="1.0" encoding="UTF-8" standalone="no" ?>
<!DOCTYPE svg PUBLIC "-//W3C//DTD SVG 1.1//EN" "http://www.w3.org/Graphics/SVG/1.1/DTD/svg11.dtd">
<svg xmlns="http://www.w3.org/2000/svg" xmlns:xlink="http://www.w3.org/1999/xlink" version="1.1" width="970" height="772" viewBox="0 0 970 772" xml:space="preserve">
<desc>Created with Fabric.js 4.6.0</desc>
<defs>
</defs>
<g transform="matrix(1 0 0 1 485 386)" id="KxiCvhzw3Bx8VkSifKpbP"  >
<path style="stroke: rgb(147,209,172); stroke-width: 0; stroke-dasharray: none; stroke-linecap: butt; stroke-dashoffset: 0; stroke-linejoin: miter; stroke-miterlimit: 4; fill: rgb(249,245,242); fill-rule: nonzero; opacity: 1;" vector-effect="non-scaling-stroke"  transform=" translate(-485, -386)" d="M 0 0 L 970 0 L 970 772 L 0 772 z" stroke-linecap="round" />
</g>
<g transform="matrix(1 0 0 1 485 622)" id="I98EKMY0faWaRVjsj-fUF"  >
<path style="stroke: rgb(61,139,134); stroke-width: 0; stroke-dasharray: none; stroke-linecap: butt; stroke-dashoffset: 0; stroke-linejoin: miter; stroke-miterlimit: 4; fill: rgb(245,226,216); fill-rule: nonzero; opacity: 1;" vector-effect="non-scaling-stroke"  transform=" translate(-485, -150)" d="M 0 0 L 970 0 L 970 300 L 0 300 z" stroke-linecap="round" />
</g>
<g transform="matrix(1 0 0 1 485 8)" id="WTBpJI1amykjyXJBH3RdZ"  >
<path style="stroke: rgb(32,160,17); stroke-width: 0; stroke-dasharray: none; stroke-linecap: butt; stroke-dashoffset: 0; stroke-linejoin: miter; stroke-miterlimit: 4; fill: rgb(249,245,242); fill-rule: nonzero; opacity: 1;" vector-effect="non-scaling-stroke"  transform=" translate(-750, -750)" d="M 750 0 C 1164 0 1500 336 1500 750 C 1500 1164 1164 1500 750 1500 C 336 1500 0 1164 0 750 C 0 336 336 0 750 0 z" stroke-linecap="round" />
</g>
</svg>